# xmcd
#
# Track frame offsets: 
#        182
#        17800
#        35837
#        52467
#        69195
#        86952
#        109387
#        127592
#        142300
#        159617
#
# Disc length: 2348 seconds
#
# Revision: 2
# Processed by: cddbd v1.5.2PL0 Copyright (c) Steve Scherf et al.
# Submitted via: ExactAudioCopy v0.99pb5
#
DISCID=96092a0a
DTITLE=Church Of Rhythm - The Collective Remixes Of Church Of Rhythm
DYEAR=1995
DGENRE=Hip-Hop/Rock
TTITLE0=Free (Fro Mix)
TTITLE1=Take Back The Beat (Concrete And Guts Mix)
TTITLE2=Who's Got Your Back (Da Collective Mix)
TTITLE3=I Still Believe (Sears Matrix Mix)
TTITLE4=Set Me Free (Mookie Jazz Mix)
TTITLE5=Purity (P&E Total Recall Mix)
TTITLE6=Free (Harumbe Mix)
TTITLE7=Colours (Xhausted Mix)
TTITLE8=Take Back The Beat (What's In The Trunk Mix)
TTITLE9=I Found Love (The Reconciliation Mix)
EXTD=
EXTT0=
EXTT1=
EXTT2=
EXTT3=
EXTT4=
EXTT5=
EXTT6=
EXTT7=
EXTT8=
EXTT9=
PLAYORDER=
